# xmcd
#
# Track frame offsets:
#	150
#	19830
#	33220
#	51602
#	66420
#	79427
#	94790
#	113955
#	139067
#	148620
#	167832
#	195102
#
# Disc length: 2839 seconds
#
# Revision: 1
# Processed by: cddbd v1.5.1PL0 Copyright (c) Steve Scherf et al.
# Submitted via: audiograbber 1.83.01
#
DISCID=aa0b150c
DTITLE=Mission BB - Heed my warning
DYEAR=1991
DGENRE=Blues
TTITLE0=Hunting
TTITLE1=I've got my eyes on you
TTITLE2=Lord have mercy
TTITLE3=It's gonna happen
TTITLE4=Out of my head
TTITLE5=Cumulonimbus
TTITLE6=Erotic pool
TTITLE7=Face the fact
TTITLE8=I wouldn't be nothing
TTITLE9=The runstate
TTITLE10=Don't love me
TTITLE11=Wanted by the blues
EXTD=
EXTT0=
EXTT1=
EXTT2=
EXTT3=
EXTT4=
EXTT5=
EXTT6=
EXTT7=
EXTT8=
EXTT9=
EXTT10=
EXTT11=
PLAYORDER=
